Coordinates
version=1
nRows=9
nColumns=24
inDegrees=yes

Units are S.I. units (second, meters, Newtons, ...)
Angles are in degrees.

endheader
time	pelvis_tilt	pelvis_list	pelvis_rotation	pelvis_tx	pelvis_ty	pelvis_tz	hip_flexion_r	hip_adduction_r	hip_rotation_r	knee_angle_r	ankle_angle_r	subtalar_angle_r	mtp_angle_r	hip_flexion_l	hip_adduction_l	hip_rotation_l	knee_angle_l	ankle_angle_l	subtalar_angle_l	mtp_angle_l	lumbar_extension	lumbar_bending	lumbar_rotation
      0.78300000	     -6.06082474	      1.93122686	      1.68427441	     -0.39750600	      1.06509572	      0.29888473	     16.67680947	      0.29216788	      1.02592622	    -20.10736031	     11.03487925	     -5.54146547	      2.89543835	     22.86323463	     -1.73105804	     -4.34206605	    -69.25812074	      9.65643774	      3.67825018	      1.51660620	    -10.70085725	      3.23235449	      1.45239171
      0.78716667	     -6.01361174	      2.05424679	      1.57446457	     -0.39253177	      1.06586650	      0.29930522	     16.23056192	      0.20091015	      1.08667673	    -19.88230399	     11.15065471	     -5.45765790	      2.88138040	     23.28661450	     -1.64241406	     -4.53528336	    -68.85233694	     10.00493330	      3.92620189	      1.52766605	    -10.72202256	      3.03945771	      1.57912969
      0.79133333	     -5.97228183	      2.17936955	      1.45707299	     -0.38757175	      1.06657892	      0.29974749	     15.79450014	      0.10918964	      1.16086927	    -19.66174302	     11.28839807	     -5.35826623	      2.86724730	     23.70854981	     -1.56047489	     -4.74109077	    -68.40973093	     10.32597942	      4.20663817	      1.54029728	    -10.75010312	      2.83773569	      1.74979504
      0.79550000	     -5.89692638	      2.29074768	      1.33843644	     -0.38262479	      1.06733750	      0.30016226	     15.31547052	      0.02928566	      1.23493432	    -19.42437762	     11.44114833	     -5.23474854	      2.83964050	     24.08313142	     -1.48970564	     -4.93597675	    -67.92359836	     10.62017044	      4.49973877	      1.55697089	    -10.82752871	      2.66868414	      2.04374291
      0.79966667	     -5.86755959	      2.41273519	      1.20938612	     -0.37767215	      1.06796631	      0.30059993	     14.89704288	     -0.06102161	      1.31577896	    -19.20582621	     11.54735063	     -5.15396756	      2.82620569	     24.49656886	     -1.41495833	     -5.15201839	    -67.40531958	     10.93017295	      4.72142447	      1.57086242	    -10.83785382	      2.45448904	      2.16363207
      0.80383333	     -5.79475011	      2.51677501	      1.07898824	     -0.37273734	      1.06864500	      0.30102651	     14.42485789	     -0.13347168	      1.39517629	    -18.96923947	     11.70037489	     -5.03880189	      2.79463961	     24.85369301	     -1.36184214	     -5.36087750	    -66.84674525	     11.20921815	      5.01195372	      1.59327847	    -10.90593907	      2.28094280	      2.46888634
      0.80800000	     -5.77845670	      2.63194810	      0.94882439	     -0.36779918	      1.06918042	      0.30143811	     14.02253409	     -0.22110465	      1.48135903	    -18.75039628	     11.80500706	     -4.96457248	      2.78147329	     25.26254459	     -1.29312514	     -5.57051202	    -66.25599629	     11.48795606	      5.21774009	      1.60782350	    -10.90321475	      2.08506946	      2.57484107
      0.81216667	     -5.72394713	      2.74076310	      0.81085708	     -0.36287865	      1.06974720	      0.30185322	     13.58127425	     -0.30221266	      1.56869633	    -18.53347690	     11.94078071	     -4.87317868	      2.76595512	     25.61714478	     -1.23654226	     -5.78363384	    -65.62475914	     11.75257090	      5.47735753	      1.62484132	    -10.95071064	      1.90669873	      2.75975677
      0.81633333	     -5.67070033	      2.85026327	      0.68071650	     -0.35796527	      1.07028092	      0.30222898	     13.14131745	     -0.39040822	      1.64359698	    -18.31581928	     12.07600589	     -4.77659959	      2.74900454	     25.96320806	     -1.17099908	     -5.98158753	    -64.95538836	     11.98787027	      5.69384685	      1.64181365	    -10.99058178	      1.74190637	      2.96056135
